<svg xmlns="http://www.w3.org/2000/svg" xmlns:xlink="http://www.w3.org/1999/xlink" width="1024" zoomAndPan="magnify" viewBox="0 0 768 767.999994" height="1024" preserveAspectRatio="xMidYMid meet" version="1.0"><defs><clipPath id="3bfd2df37f"><path d="M 210 79.910156 L 724 79.910156 L 724 244 L 210 244 Z M 210 79.910156 " clip-rule="nonzero"/></clipPath><clipPath id="e933909926"><path d="M 0 527 L 724 527 L 724 688.160156 L 0 688.160156 Z M 0 527 " clip-rule="nonzero"/></clipPath></defs><g clip-path="url(#3bfd2df37f)"><path fill="#d5d0c5" d="M 723.285156 243.519531 L 210.695312 243.519531 L 284.84375 79.910156 L 451.839844 79.910156 C 562.738281 79.910156 666.0625 139.226562 719.417969 236.425781 C 720.867188 238.683594 721.996094 241.101562 723.285156 243.519531 Z M 723.285156 243.519531 " fill-opacity="1" fill-rule="nonzero"/></g><path fill="#d5d0c5" d="M 358.992188 299.132812 L 747.949219 299.132812 C 747.949219 299.132812 778.898438 360.867188 747.949219 465.804688 L 284.84375 465.804688 Z M 358.992188 299.132812 " fill-opacity="1" fill-rule="nonzero"/><g clip-path="url(#e933909926)"><path fill="#d5d0c5" d="M 74.96875 527.542969 L 723.285156 527.542969 C 723.285156 527.542969 670.414062 648.273438 530.660156 680.835938 C 509.0625 685.832031 486.976562 688.089844 464.734375 688.089844 L 0.820312 688.089844 Z M 74.96875 527.542969 " fill-opacity="1" fill-rule="nonzero"/></g></svg>