<svg xmlns="http://www.w3.org/2000/svg" xmlns:xlink="http://www.w3.org/1999/xlink" width="1024" zoomAndPan="magnify" viewBox="0 0 768 767.999994" height="1024" preserveAspectRatio="xMidYMid meet" version="1.0"><defs><clipPath id="105c0012db"><path d="M 0 19.550781 L 768 19.550781 L 768 748.550781 L 0 748.550781 Z M 0 19.550781 " clip-rule="nonzero"/></clipPath></defs><g clip-path="url(#105c0012db)"><path fill="#777777" d="M 652.863281 651.382812 C 727.933594 586.011719 767.578125 493.652344 767.578125 383.996094 C 767.578125 274.34375 727.933594 181.980469 652.863281 116.609375 C 579.902344 53.347656 478.261719 19.609375 359.328125 19.609375 L 0 19.609375 L 0 748.386719 L 359.328125 748.386719 C 478.261719 748.386719 579.902344 714.644531 652.863281 651.382812 Z M 349.628906 242.289062 C 439.039062 242.289062 492.179688 295.429688 492.179688 383.996094 C 492.179688 472.5625 439.039062 525.703125 349.628906 525.703125 L 273.714844 525.703125 L 273.714844 242.289062 Z M 349.628906 242.289062 " fill-opacity="1" fill-rule="nonzero"/></g></svg>