<svg xmlns="http://www.w3.org/2000/svg" xmlns:xlink="http://www.w3.org/1999/xlink" width="1024" zoomAndPan="magnify" viewBox="0 0 768 767.999994" height="1024" preserveAspectRatio="xMidYMid meet" version="1.0"><defs><clipPath id="d8a4f7fc87"><path d="M 12.882812 44 L 755 44 L 755 748.25 L 12.882812 748.25 Z M 12.882812 44 " clip-rule="nonzero"/></clipPath></defs><g clip-path="url(#d8a4f7fc87)"><path fill="#33cda7" d="M 643.839844 654.636719 C 716.390625 591.457031 754.703125 502.195312 754.703125 396.21875 C 754.703125 290.246094 716.390625 200.984375 643.839844 137.804688 C 573.324219 76.667969 475.09375 44.058594 360.152344 44.058594 L 12.882812 44.058594 L 12.882812 748.382812 L 360.152344 748.382812 C 475.09375 748.382812 573.324219 715.773438 643.839844 654.636719 Z M 350.777344 259.269531 C 437.1875 259.269531 488.546875 310.625 488.546875 396.21875 C 488.546875 481.816406 437.1875 533.171875 350.777344 533.171875 L 277.410156 533.171875 L 277.410156 259.269531 Z M 350.777344 259.269531 " fill-opacity="1" fill-rule="nonzero"/></g></svg>